<mxfile host="Electron" agent="Mozilla/5.0 (Windows NT 10.0; Win64; x64) AppleWebKit/537.36 (KHTML, like Gecko) draw.io/24.7.5 Chrome/126.0.6478.183 Electron/31.3.0 Safari/537.36" version="24.7.5">
  <diagram name="Page-1" id="mZOD_tnza1Ey7wqmkClK">
    <mxGraphModel dx="2229" dy="1935" grid="1" gridSize="10" guides="1" tooltips="1" connect="1" arrows="1" fold="1" page="1" pageScale="1" pageWidth="827" pageHeight="1169" math="0" shadow="0">
      <root>
        <mxCell id="0" />
        <mxCell id="1" parent="0" />
        <mxCell id="mlmWYDQaAf5w4Bjc56NV-7" value="" style="group;strokeWidth=5;" vertex="1" connectable="0" parent="1">
          <mxGeometry x="40.00000000000003" y="130" width="724.44" height="713" as="geometry" />
        </mxCell>
        <mxCell id="mlmWYDQaAf5w4Bjc56NV-2" value="" style="shape=mxgraph.pid.vessels.container,_tank,_cistern;html=1;pointerEvents=1;align=center;verticalLabelPosition=bottom;verticalAlign=top;dashed=0;strokeWidth=5;" vertex="1" parent="mlmWYDQaAf5w4Bjc56NV-7">
          <mxGeometry x="152.51368421052632" y="152.51336898395724" width="381.2842105263158" height="266.89839572192517" as="geometry" />
        </mxCell>
        <mxCell id="mlmWYDQaAf5w4Bjc56NV-3" value="" style="endArrow=blockThin;html=1;rounded=0;endFill=1;strokeWidth=5;" edge="1" parent="mlmWYDQaAf5w4Bjc56NV-7">
          <mxGeometry width="50" height="50" relative="1" as="geometry">
            <mxPoint as="sourcePoint" />
            <mxPoint x="266.8989473684211" y="114.38502673796792" as="targetPoint" />
            <Array as="points">
              <mxPoint x="266.8989473684211" />
            </Array>
          </mxGeometry>
        </mxCell>
        <mxCell id="mlmWYDQaAf5w4Bjc56NV-4" value="" style="shape=mxgraph.pid.pumps.centrifugal_pump_1;html=1;pointerEvents=1;align=center;verticalLabelPosition=bottom;verticalAlign=top;dashed=0;strokeColor=default;strokeWidth=5;fontFamily=Helvetica;fontSize=12;fontColor=default;fillColor=default;" vertex="1" parent="mlmWYDQaAf5w4Bjc56NV-7">
          <mxGeometry x="419.4126315789474" y="571.9251336898396" width="147.40447578947368" height="141.07486631016044" as="geometry" />
        </mxCell>
        <mxCell id="mlmWYDQaAf5w4Bjc56NV-5" value="" style="endArrow=blockThin;html=1;rounded=0;endFill=1;strokeWidth=5;entryX=0.021;entryY=0.424;entryDx=0;entryDy=0;entryPerimeter=0;exitX=0.395;exitY=0.999;exitDx=0;exitDy=0;exitPerimeter=0;" edge="1" parent="mlmWYDQaAf5w4Bjc56NV-7" source="mlmWYDQaAf5w4Bjc56NV-2" target="mlmWYDQaAf5w4Bjc56NV-4">
          <mxGeometry width="50" height="50" relative="1" as="geometry">
            <mxPoint x="38.12842105263158" y="38.12834224598931" as="sourcePoint" />
            <mxPoint x="305.02736842105264" y="152.51336898395724" as="targetPoint" />
            <Array as="points">
              <mxPoint x="305.02736842105264" y="632.9304812834225" />
            </Array>
          </mxGeometry>
        </mxCell>
        <mxCell id="mlmWYDQaAf5w4Bjc56NV-6" value="" style="endArrow=blockThin;html=1;rounded=0;endFill=1;strokeWidth=5;entryX=0.021;entryY=0.424;entryDx=0;entryDy=0;entryPerimeter=0;" edge="1" parent="mlmWYDQaAf5w4Bjc56NV-7">
          <mxGeometry width="50" height="50" relative="1" as="geometry">
            <mxPoint x="568.1134736842106" y="594.8021390374332" as="sourcePoint" />
            <mxPoint x="724.44" y="594.8021390374332" as="targetPoint" />
            <Array as="points" />
          </mxGeometry>
        </mxCell>
      </root>
    </mxGraphModel>
  </diagram>
</mxfile>
